<svg width="520" height="908" viewBox="0 0 520 908" fill="none" xmlns="http://www.w3.org/2000/svg">
<path d="M902.5 454C902.5 702.812 701.245 904.5 453 904.5C204.755 904.5 3.5 702.812 3.5 454C3.5 205.188 204.755 3.5 453 3.5C701.245 3.5 902.5 205.188 902.5 454Z" fill="white" stroke="#140A00" stroke-width="7"/>
<path d="M811.9 454C811.9 652.664 651.208 813.7 453 813.7C254.792 813.7 94.1 652.664 94.1 454C94.1 255.336 254.792 94.3 453 94.3C651.208 94.3 811.9 255.336 811.9 454Z" fill="white" stroke="#140A00" stroke-width="7"/>
<mask id="path-3-inside-1_186_228" fill="white">
<path fill-rule="evenodd" clip-rule="evenodd" d="M461.601 112.294C426.028 115.771 389.9 131.099 360.027 155.389L353.202 160.939L350.038 160.303C345.062 159.301 333.003 159.449 327.155 160.582C314.427 163.05 302.975 168.82 293.895 177.339C288.594 182.313 286.962 185.755 286.958 191.962C286.954 199.575 287.835 201.001 300.615 214.074L311.557 225.267L309.664 231.255C302.414 254.192 298.832 276.808 296.574 313.896L296.211 319.864L291.793 317.407C270.418 305.517 243.843 306.537 223.598 320.025C220.808 321.883 216.937 324.892 214.997 326.711C212.002 329.517 211.416 330.419 211.128 332.668C210.792 335.277 210.849 335.38 214.754 339.242C230.63 354.941 256.079 361.115 278.177 354.628L282.747 353.286L281.423 357.917C274.992 380.42 281.074 406.041 296.704 422.295C300.409 426.147 300.521 426.21 303.091 425.871C305.315 425.577 306.189 424.991 308.94 421.949C328.06 400.811 331.775 369.281 318.118 344.061C316.602 341.262 315.959 339.524 316.436 339.519C320.712 339.47 340.265 338.101 347.177 337.367C365.892 335.38 388.253 330.844 403.107 326.021L409.062 324.087L420.106 335.177C432.995 348.119 434.407 349.015 441.925 349.029C446.166 349.037 447.169 348.813 449.994 347.227C459.738 341.757 469.799 324.639 472.887 308.279C474.009 302.331 474.15 290.126 473.154 285.04L472.517 281.785L477.271 275.836C498.298 249.522 512.991 217.678 518.945 185.52C519.813 180.828 520.019 176.52 519.999 163.431C519.97 144.891 519.457 141.788 514.836 132.259C509.305 120.853 498.922 114.762 481.277 112.57C476.225 111.943 466.577 111.807 461.601 112.294ZM485.817 125.711C491.652 127.065 497.683 129.827 500.25 132.322C507.996 139.847 510.735 160.044 507.008 182.142C504.978 194.177 500.786 209.154 497.059 217.697L495.628 220.975L491.186 221.734C484.327 222.907 471.062 222.197 464.628 220.313C457.828 218.322 453.851 216.679 447.886 213.395C445.122 211.872 442.139 210.676 441.108 210.676C438.387 210.676 436.169 212.907 435.751 216.062C435.427 218.509 435.563 218.838 437.776 220.97C439.08 222.226 442.727 224.548 445.88 226.128C457.676 232.042 468.389 234.606 481.308 234.606H489.47L487.95 237.646C479.368 254.811 461.147 278.307 447.925 289.259C422.122 310.63 379.594 323.76 326.895 326.625C320.568 326.969 313.787 327.252 311.824 327.254L308.257 327.257L308.674 316.366C310.906 258.174 323.672 213.491 345.968 185.826C356.111 173.241 377.823 155.689 394.473 146.615L399.692 143.77L400.018 154.061C400.352 164.643 401.298 170.21 404.166 178.463C406.548 185.321 411.223 187.585 415.03 183.726C417.248 181.479 417.305 179.383 415.31 173.427C412.113 163.878 411.048 151.144 412.633 141.414L413.309 137.263L418.388 135.248C431.658 129.983 445.697 126.502 461.601 124.536C466.311 123.954 481.4 124.686 485.817 125.711ZM468.62 157.005C466.138 158.317 465.274 159.701 465.253 162.404C465.21 167.544 471.539 170.371 475.072 166.791C478.165 163.656 477.331 158.61 473.447 156.966C470.836 155.86 470.785 155.861 468.62 157.005ZM341.289 171.781C341.492 171.986 339.867 174.235 337.679 176.777C332.165 183.186 324.799 194.783 320.348 204.068C318.288 208.364 316.455 211.884 316.273 211.891C316.092 211.898 312.073 207.948 307.343 203.113C297.853 193.411 297.434 192.57 300.105 188.57C303.357 183.701 314.805 176.633 323.868 173.899C329.395 172.231 340.412 170.892 341.289 171.781ZM421.815 194.548C419.728 194.945 417.405 198.157 417.405 200.647C417.405 205.573 423.975 208.369 427.398 204.9C431.791 200.447 427.977 193.373 421.815 194.548ZM461.595 301.24C460.761 309.546 458.185 317.698 454.35 324.165C450.939 329.915 446.758 335.048 444.534 336.214C440.946 338.094 440.16 337.64 430.922 328.358C426.152 323.564 422.254 319.491 422.261 319.308C422.267 319.124 425.768 317.256 430.041 315.156C438.735 310.885 452.151 302.053 457.665 296.97C459.663 295.128 461.516 293.831 461.782 294.087C462.048 294.343 461.964 297.562 461.595 301.24ZM273.603 323.249C279.25 324.701 286.058 327.806 290.753 331.071C293.828 333.209 293.693 333.54 288.424 336.784C283.912 339.561 277.834 342.087 272.105 343.566C265.572 345.252 253.053 345.119 246.374 343.294C240.987 341.821 232.992 338.145 228.757 335.191L225.983 333.257L228.914 331.101C234.727 326.826 244.829 322.866 252.768 321.752C258.367 320.965 267.183 321.599 273.603 323.249ZM308.096 351.21C317.246 369.094 316.033 390.519 304.909 407.499L302.726 410.832L301.314 409.08C298.933 406.126 293.956 395.33 292.587 390.149C290.861 383.619 290.715 370.069 292.306 364.071C294.46 355.953 297.351 349.47 301.034 344.494L302.581 342.405L303.998 344.188C304.777 345.168 306.621 348.328 308.096 351.21Z"/>
</mask>
<path fill-rule="evenodd" clip-rule="evenodd" d="M461.601 112.294C426.028 115.771 389.9 131.099 360.027 155.389L353.202 160.939L350.038 160.303C345.062 159.301 333.003 159.449 327.155 160.582C314.427 163.05 302.975 168.82 293.895 177.339C288.594 182.313 286.962 185.755 286.958 191.962C286.954 199.575 287.835 201.001 300.615 214.074L311.557 225.267L309.664 231.255C302.414 254.192 298.832 276.808 296.574 313.896L296.211 319.864L291.793 317.407C270.418 305.517 243.843 306.537 223.598 320.025C220.808 321.883 216.937 324.892 214.997 326.711C212.002 329.517 211.416 330.419 211.128 332.668C210.792 335.277 210.849 335.38 214.754 339.242C230.63 354.941 256.079 361.115 278.177 354.628L282.747 353.286L281.423 357.917C274.992 380.42 281.074 406.041 296.704 422.295C300.409 426.147 300.521 426.21 303.091 425.871C305.315 425.577 306.189 424.991 308.94 421.949C328.06 400.811 331.775 369.281 318.118 344.061C316.602 341.262 315.959 339.524 316.436 339.519C320.712 339.47 340.265 338.101 347.177 337.367C365.892 335.38 388.253 330.844 403.107 326.021L409.062 324.087L420.106 335.177C432.995 348.119 434.407 349.015 441.925 349.029C446.166 349.037 447.169 348.813 449.994 347.227C459.738 341.757 469.799 324.639 472.887 308.279C474.009 302.331 474.15 290.126 473.154 285.04L472.517 281.785L477.271 275.836C498.298 249.522 512.991 217.678 518.945 185.52C519.813 180.828 520.019 176.52 519.999 163.431C519.97 144.891 519.457 141.788 514.836 132.259C509.305 120.853 498.922 114.762 481.277 112.57C476.225 111.943 466.577 111.807 461.601 112.294ZM485.817 125.711C491.652 127.065 497.683 129.827 500.25 132.322C507.996 139.847 510.735 160.044 507.008 182.142C504.978 194.177 500.786 209.154 497.059 217.697L495.628 220.975L491.186 221.734C484.327 222.907 471.062 222.197 464.628 220.313C457.828 218.322 453.851 216.679 447.886 213.395C445.122 211.872 442.139 210.676 441.108 210.676C438.387 210.676 436.169 212.907 435.751 216.062C435.427 218.509 435.563 218.838 437.776 220.97C439.08 222.226 442.727 224.548 445.88 226.128C457.676 232.042 468.389 234.606 481.308 234.606H489.47L487.95 237.646C479.368 254.811 461.147 278.307 447.925 289.259C422.122 310.63 379.594 323.76 326.895 326.625C320.568 326.969 313.787 327.252 311.824 327.254L308.257 327.257L308.674 316.366C310.906 258.174 323.672 213.491 345.968 185.826C356.111 173.241 377.823 155.689 394.473 146.615L399.692 143.77L400.018 154.061C400.352 164.643 401.298 170.21 404.166 178.463C406.548 185.321 411.223 187.585 415.03 183.726C417.248 181.479 417.305 179.383 415.31 173.427C412.113 163.878 411.048 151.144 412.633 141.414L413.309 137.263L418.388 135.248C431.658 129.983 445.697 126.502 461.601 124.536C466.311 123.954 481.4 124.686 485.817 125.711ZM468.62 157.005C466.138 158.317 465.274 159.701 465.253 162.404C465.21 167.544 471.539 170.371 475.072 166.791C478.165 163.656 477.331 158.61 473.447 156.966C470.836 155.86 470.785 155.861 468.62 157.005ZM341.289 171.781C341.492 171.986 339.867 174.235 337.679 176.777C332.165 183.186 324.799 194.783 320.348 204.068C318.288 208.364 316.455 211.884 316.273 211.891C316.092 211.898 312.073 207.948 307.343 203.113C297.853 193.411 297.434 192.57 300.105 188.57C303.357 183.701 314.805 176.633 323.868 173.899C329.395 172.231 340.412 170.892 341.289 171.781ZM421.815 194.548C419.728 194.945 417.405 198.157 417.405 200.647C417.405 205.573 423.975 208.369 427.398 204.9C431.791 200.447 427.977 193.373 421.815 194.548ZM461.595 301.24C460.761 309.546 458.185 317.698 454.35 324.165C450.939 329.915 446.758 335.048 444.534 336.214C440.946 338.094 440.16 337.64 430.922 328.358C426.152 323.564 422.254 319.491 422.261 319.308C422.267 319.124 425.768 317.256 430.041 315.156C438.735 310.885 452.151 302.053 457.665 296.97C459.663 295.128 461.516 293.831 461.782 294.087C462.048 294.343 461.964 297.562 461.595 301.24ZM273.603 323.249C279.25 324.701 286.058 327.806 290.753 331.071C293.828 333.209 293.693 333.54 288.424 336.784C283.912 339.561 277.834 342.087 272.105 343.566C265.572 345.252 253.053 345.119 246.374 343.294C240.987 341.821 232.992 338.145 228.757 335.191L225.983 333.257L228.914 331.101C234.727 326.826 244.829 322.866 252.768 321.752C258.367 320.965 267.183 321.599 273.603 323.249ZM308.096 351.21C317.246 369.094 316.033 390.519 304.909 407.499L302.726 410.832L301.314 409.08C298.933 406.126 293.956 395.33 292.587 390.149C290.861 383.619 290.715 370.069 292.306 364.071C294.46 355.953 297.351 349.47 301.034 344.494L302.581 342.405L303.998 344.188C304.777 345.168 306.621 348.328 308.096 351.21Z" fill="black" stroke="white" stroke-width="6" mask="url(#path-3-inside-1_186_228)"/>
<path d="M260.5 521L256 501C256 499.667 255.1 497 251.5 497C247.9 497 251 513 253 521L267 540C269.833 553.333 279.8 581.4 297 587C318.5 594 312.5 600 355 610C389 618 417.833 598 428 587L411 575.5L394 562H380L355 544.5L324.5 543L305.5 533L275.5 527.5L260.5 521Z" fill="#50D87E" stroke="black"/>
<mask id="path-5-inside-2_186_228" fill="white">
<path fill-rule="evenodd" clip-rule="evenodd" d="M434.524 585.455C433.98 588.012 424.374 596.613 416.834 601.294C400.578 611.387 380.98 615.715 362.387 613.318C353.411 612.161 345.461 609.911 336.707 606.052C321.865 599.508 315.971 597.147 310.214 595.439C303.623 593.482 300.538 592.275 296.778 590.182C287.589 585.066 278.784 576.453 273.393 567.306C271.849 564.687 269.287 558.553 268.545 555.696C267.194 550.501 265.355 545.465 263.45 541.745C261.278 537.504 260.012 535.568 256.593 531.258C252.833 526.517 250.628 522.621 248.456 516.877C246.413 511.472 245.709 507.973 245.702 503.191C245.694 497.502 249.313 493.99 254.264 494.883C256.771 495.335 258.372 496.562 259.496 498.891C260.34 500.641 260.415 501.108 260.401 504.572C260.38 509.921 260.971 513.151 262.636 516.78C263.815 519.351 264.174 519.873 265.691 521.218C269.02 524.172 272.401 525.063 286.157 526.614C291.037 527.165 296.573 527.943 298.459 528.344C305.756 529.895 311.715 532.362 319.225 536.941C324.342 540.061 326.141 540.482 331.599 539.832C349.774 537.667 364.679 542.852 377.188 555.693L379.322 557.883L382.302 557.434C394.206 555.638 405.147 561.427 415.003 574.734C417.737 578.425 418.722 579.35 420.973 580.34C423.267 581.349 425.594 581.806 429.346 581.981C431.124 582.064 432.916 582.35 433.329 582.617C434.28 583.231 434.756 584.362 434.524 585.455ZM422.994 587.055C420.007 586.397 416.206 584.532 414.333 582.805C413.442 581.982 411.902 580.172 410.91 578.782C408.328 575.161 406.662 573.229 403.936 570.698C396.517 563.811 388.512 561.399 380.781 563.722C379.282 564.173 378.161 564.331 377.689 564.159C377.282 564.011 375.914 562.737 374.648 561.328C369.748 555.872 363.659 551.401 357.553 548.776C349.753 545.422 342.248 544.457 332.622 545.569C325.498 546.392 322.833 545.824 316.884 542.213C306.243 535.755 300.774 534.042 285.338 532.332C271.088 530.753 266.044 529.313 262.094 525.697C259.473 523.298 258.285 521.553 256.829 517.966C255.269 514.121 254.636 510.448 254.689 505.545C254.71 503.582 254.616 501.707 254.479 501.379C254.167 500.628 252.579 500.29 251.937 500.837C251.661 501.072 251.435 502.112 251.41 503.263C251.246 510.772 255.016 520.183 261.344 528.057C266.799 534.845 270.412 541.738 272.746 549.811C274.594 556.202 276.75 561.873 278.38 564.628C283.435 573.17 291.271 580.72 299.953 585.413C303.472 587.315 305.948 588.248 312.538 590.156C318.149 591.781 324.11 594.157 338.246 600.402C351.584 606.295 362.51 608.573 375.229 608.116C384.755 607.774 390.863 606.467 400.365 602.74C408.051 599.724 412.137 597.593 417.485 593.811C419.98 592.047 425.17 587.798 425.084 587.591C425.064 587.545 424.124 587.303 422.994 587.055ZM399.897 583.188C400.231 586.239 399.858 588.856 398.669 591.814C396.862 596.305 393.905 599.308 389.484 601.138C384.06 603.383 378.384 602.816 373.586 599.549C370.366 597.356 368.826 595.454 367.272 591.749C366.242 589.293 365.946 588.208 365.82 586.423C365.381 580.24 368.182 574.29 373.148 570.855C375.467 569.252 376.74 568.722 379.515 568.206C385.416 567.109 391.559 569.183 395.54 573.616C397.447 575.739 399.598 580.466 399.897 583.188ZM390.544 576.765C384.674 571.394 375.376 573.423 372.378 580.729C369.365 588.068 374.638 596.284 382.619 596.687C384.315 596.773 384.99 596.629 387.212 595.705C389.459 594.771 390.009 594.409 391.212 593.076C393.623 590.403 394.729 586.618 394.088 583.238C393.666 581.012 392.141 578.227 390.544 576.765ZM359.438 569.36C360.304 573.16 359.834 577.788 358.254 581.017C357.781 581.982 356.572 583.732 355.566 584.904C347.451 594.36 332.008 591.702 327.154 580.014C325.457 575.926 325.224 572.09 326.435 568.158C328.126 562.667 331.582 559.084 337.088 557.114C341.416 555.565 345.223 555.683 349.36 557.492C354.299 559.653 358.3 564.364 359.438 569.36ZM350.445 564.939C348.659 563.268 345.535 561.944 343.084 561.819C341.452 561.736 340.778 561.887 338.426 562.865C335.999 563.874 335.523 564.185 334.365 565.522C332.637 567.516 331.502 570.301 331.407 572.778C331.341 574.512 331.487 575.161 332.492 577.577C333.491 579.982 333.856 580.558 335.103 581.707C337.048 583.499 339.175 584.475 341.703 584.734C345.228 585.096 349.19 583.617 351.212 581.184C353.359 578.599 354.128 576.481 354.126 573.161C354.124 570.445 352.534 566.893 350.445 564.939ZM321.193 557.967C321.633 564.136 318.903 569.984 313.992 573.388C311.765 574.932 310.19 575.58 307.433 576.09C301.446 577.197 295.431 575.025 291.232 570.238C289.383 568.13 287.388 563.611 287.144 560.979C286.69 556.068 288.167 551.172 291.129 547.779C296.159 542.015 303.599 540.269 310.578 543.215C316.723 545.809 320.721 551.365 321.193 557.967ZM312.963 551.901C310.847 549.274 307.846 547.79 304.29 547.61C302.637 547.526 301.946 547.675 299.736 548.594C297.444 549.547 296.968 549.865 295.767 551.251C290.46 557.376 292.719 566.875 300.161 569.728C302.656 570.685 304.465 570.831 306.843 570.27C315.011 568.342 318.288 558.508 312.963 551.901Z"/>
</mask>
<path fill-rule="evenodd" clip-rule="evenodd" d="M434.524 585.455C433.98 588.012 424.374 596.613 416.834 601.294C400.578 611.387 380.98 615.715 362.387 613.318C353.411 612.161 345.461 609.911 336.707 606.052C321.865 599.508 315.971 597.147 310.214 595.439C303.623 593.482 300.538 592.275 296.778 590.182C287.589 585.066 278.784 576.453 273.393 567.306C271.849 564.687 269.287 558.553 268.545 555.696C267.194 550.501 265.355 545.465 263.45 541.745C261.278 537.504 260.012 535.568 256.593 531.258C252.833 526.517 250.628 522.621 248.456 516.877C246.413 511.472 245.709 507.973 245.702 503.191C245.694 497.502 249.313 493.99 254.264 494.883C256.771 495.335 258.372 496.562 259.496 498.891C260.34 500.641 260.415 501.108 260.401 504.572C260.38 509.921 260.971 513.151 262.636 516.78C263.815 519.351 264.174 519.873 265.691 521.218C269.02 524.172 272.401 525.063 286.157 526.614C291.037 527.165 296.573 527.943 298.459 528.344C305.756 529.895 311.715 532.362 319.225 536.941C324.342 540.061 326.141 540.482 331.599 539.832C349.774 537.667 364.679 542.852 377.188 555.693L379.322 557.883L382.302 557.434C394.206 555.638 405.147 561.427 415.003 574.734C417.737 578.425 418.722 579.35 420.973 580.34C423.267 581.349 425.594 581.806 429.346 581.981C431.124 582.064 432.916 582.35 433.329 582.617C434.28 583.231 434.756 584.362 434.524 585.455ZM422.994 587.055C420.007 586.397 416.206 584.532 414.333 582.805C413.442 581.982 411.902 580.172 410.91 578.782C408.328 575.161 406.662 573.229 403.936 570.698C396.517 563.811 388.512 561.399 380.781 563.722C379.282 564.173 378.161 564.331 377.689 564.159C377.282 564.011 375.914 562.737 374.648 561.328C369.748 555.872 363.659 551.401 357.553 548.776C349.753 545.422 342.248 544.457 332.622 545.569C325.498 546.392 322.833 545.824 316.884 542.213C306.243 535.755 300.774 534.042 285.338 532.332C271.088 530.753 266.044 529.313 262.094 525.697C259.473 523.298 258.285 521.553 256.829 517.966C255.269 514.121 254.636 510.448 254.689 505.545C254.71 503.582 254.616 501.707 254.479 501.379C254.167 500.628 252.579 500.29 251.937 500.837C251.661 501.072 251.435 502.112 251.41 503.263C251.246 510.772 255.016 520.183 261.344 528.057C266.799 534.845 270.412 541.738 272.746 549.811C274.594 556.202 276.75 561.873 278.38 564.628C283.435 573.17 291.271 580.72 299.953 585.413C303.472 587.315 305.948 588.248 312.538 590.156C318.149 591.781 324.11 594.157 338.246 600.402C351.584 606.295 362.51 608.573 375.229 608.116C384.755 607.774 390.863 606.467 400.365 602.74C408.051 599.724 412.137 597.593 417.485 593.811C419.98 592.047 425.17 587.798 425.084 587.591C425.064 587.545 424.124 587.303 422.994 587.055ZM399.897 583.188C400.231 586.239 399.858 588.856 398.669 591.814C396.862 596.305 393.905 599.308 389.484 601.138C384.06 603.383 378.384 602.816 373.586 599.549C370.366 597.356 368.826 595.454 367.272 591.749C366.242 589.293 365.946 588.208 365.82 586.423C365.381 580.24 368.182 574.29 373.148 570.855C375.467 569.252 376.74 568.722 379.515 568.206C385.416 567.109 391.559 569.183 395.54 573.616C397.447 575.739 399.598 580.466 399.897 583.188ZM390.544 576.765C384.674 571.394 375.376 573.423 372.378 580.729C369.365 588.068 374.638 596.284 382.619 596.687C384.315 596.773 384.99 596.629 387.212 595.705C389.459 594.771 390.009 594.409 391.212 593.076C393.623 590.403 394.729 586.618 394.088 583.238C393.666 581.012 392.141 578.227 390.544 576.765ZM359.438 569.36C360.304 573.16 359.834 577.788 358.254 581.017C357.781 581.982 356.572 583.732 355.566 584.904C347.451 594.36 332.008 591.702 327.154 580.014C325.457 575.926 325.224 572.09 326.435 568.158C328.126 562.667 331.582 559.084 337.088 557.114C341.416 555.565 345.223 555.683 349.36 557.492C354.299 559.653 358.3 564.364 359.438 569.36ZM350.445 564.939C348.659 563.268 345.535 561.944 343.084 561.819C341.452 561.736 340.778 561.887 338.426 562.865C335.999 563.874 335.523 564.185 334.365 565.522C332.637 567.516 331.502 570.301 331.407 572.778C331.341 574.512 331.487 575.161 332.492 577.577C333.491 579.982 333.856 580.558 335.103 581.707C337.048 583.499 339.175 584.475 341.703 584.734C345.228 585.096 349.19 583.617 351.212 581.184C353.359 578.599 354.128 576.481 354.126 573.161C354.124 570.445 352.534 566.893 350.445 564.939ZM321.193 557.967C321.633 564.136 318.903 569.984 313.992 573.388C311.765 574.932 310.19 575.58 307.433 576.09C301.446 577.197 295.431 575.025 291.232 570.238C289.383 568.13 287.388 563.611 287.144 560.979C286.69 556.068 288.167 551.172 291.129 547.779C296.159 542.015 303.599 540.269 310.578 543.215C316.723 545.809 320.721 551.365 321.193 557.967ZM312.963 551.901C310.847 549.274 307.846 547.79 304.29 547.61C302.637 547.526 301.946 547.675 299.736 548.594C297.444 549.547 296.968 549.865 295.767 551.251C290.46 557.376 292.719 566.875 300.161 569.728C302.656 570.685 304.465 570.831 306.843 570.27C315.011 568.342 318.288 558.508 312.963 551.901Z" fill="#197037" stroke="#197037" stroke-width="0.6" mask="url(#path-5-inside-2_186_228)"/>
<mask id="path-6-inside-3_186_228" fill="white">
<path fill-rule="evenodd" clip-rule="evenodd" d="M365.469 386.467C355.797 397.274 352.472 411.843 356.696 424.902C357.675 427.931 357.741 428.811 357.019 429.193C347.284 434.335 337.631 444.073 336.85 449.539C336.483 452.108 337.212 453.241 339.677 453.936C341.283 454.389 341.74 454.254 343.179 452.903C344.089 452.049 345.702 450.031 346.762 448.419C349.269 444.606 355.234 439.557 360.133 437.101C366.41 433.955 367.576 430.872 365.1 423.974C361.632 414.318 362.992 404.197 368.917 395.573C379.126 380.711 400.143 376.84 413.96 387.275C418.179 390.461 420.071 391.068 423.151 390.226C425.289 389.642 426.031 389.153 428.117 386.956C436.292 378.348 446.914 374.333 457.833 375.726C467.46 376.954 473.649 380.442 479.014 387.66C481.772 391.371 482.392 392.613 483.996 397.653C486.329 404.979 487.21 405.777 494.486 407.156C497.62 407.75 500.994 408.879 503.112 410.041L506.59 411.951L506.206 416.369C505.839 420.585 505.741 420.823 504.036 421.602C503.054 422.051 500.177 423.975 497.642 425.878C493.955 428.647 492.706 429.885 491.395 432.074C486.917 439.544 486.198 448.24 489.363 456.667L490.527 459.768L486.951 460.181C483.864 460.536 482.951 460.905 480.285 462.876C476.182 465.908 474.78 469.101 475.046 474.811C475.402 482.472 473.544 489.51 469.625 495.342C466.852 499.469 459.955 505.091 455.16 507.133C447.63 510.34 438.597 510.406 429.527 507.32C424.946 505.761 421.526 506.3 417.6 509.201C414.769 511.293 414.351 511.847 412.774 515.599C410.479 521.055 408.913 523.469 405.487 526.836C394.161 537.964 375.939 537.694 365.925 526.252C361.14 520.785 359.377 514.444 360.269 505.912C360.677 502.011 360.585 499.831 359.959 498.546C358.97 496.517 358.88 496.439 353.908 493.285C350.851 491.346 349.89 490.393 346.71 486.146C342.473 480.486 341.116 477.252 340.531 471.422C340.102 467.145 338.958 465.173 336.702 464.818C334.397 464.455 332.47 466.149 332.185 468.788C331.847 471.909 333.142 478.198 335.112 482.998C337.964 489.947 344.236 497.338 350.2 500.778L352.523 502.117L351.981 505.715C351.324 510.075 351.76 515.101 353.241 520.259C354.181 523.533 354.909 524.881 358.118 529.28C362.765 535.653 366.701 538.698 373.521 541.198C386.218 545.853 401.308 542.64 410.87 533.245C413.887 530.281 414.032 530.199 415.481 530.639C418.462 531.545 443.603 544.832 448.316 547.993C463.759 558.351 476.772 571.243 490.411 589.699C496.402 597.806 496.878 598.334 499.229 599.483C500.596 600.151 503.006 600.676 504.585 600.651C507.224 600.61 507.817 600.359 511.906 597.554C515.932 594.792 516.378 594.347 516.587 592.883C516.926 590.508 515.052 588.215 512.702 588.128C511.244 588.074 510.22 588.528 507.855 590.275C503.403 593.565 503.573 593.657 496.58 584.197C476.378 556.87 458.166 541.865 427.192 527.03L418.668 522.947L420.083 519.626C421.566 516.144 423.69 514.32 425.839 514.683C426.377 514.773 434.704 519.454 444.342 525.084C463.896 536.503 464.893 536.89 468.307 534.367C469.933 533.166 470.381 532.426 470.781 530.289C471.262 527.721 471.206 527.56 467.295 520.234L463.319 512.79L466.774 510.038L470.228 507.286L475.069 512.213C481.699 518.963 482.814 519.805 485.361 519.983C487.001 520.099 488.06 519.769 489.52 518.69C492.955 516.152 492.857 514.513 488.067 494.155C482.66 471.172 482.909 472.568 483.91 470.885C484.964 469.113 486.665 468.38 490.219 468.164C491.717 468.074 493.007 467.987 493.087 467.973C493.166 467.958 494.165 473.753 495.304 480.851C498.12 498.379 502.032 512.321 507.629 524.776L509.41 528.739L507.837 533.701C506.973 536.43 504.661 542.451 502.699 547.081C498.87 556.12 498.278 559.067 499.614 562.441C500.895 565.678 502.814 566.914 514.741 572.181C522.101 575.432 525.292 577.098 524.99 577.532C524.748 577.879 524.408 579.16 524.235 580.377C523.869 582.933 525.197 584.532 527.843 584.723C529.22 584.822 530.106 584.283 535.708 579.938L542.022 575.042L545.363 567.097C554.79 544.687 564.735 531.539 583.556 516.607L591.238 510.511L595.168 512.698C598.182 514.374 600.462 515.092 604.947 515.771C611.159 516.713 615.338 516.289 620.652 514.178C633.613 509.029 640.19 493.906 635.286 480.528C634.511 478.413 634.559 478.264 636.914 475.409C644.132 466.662 646.127 455.583 642.414 444.86C641.179 441.292 640.213 439.52 637.553 435.939C632.681 429.382 627.904 425.799 620.528 423.174C618.492 422.449 616.736 421.735 616.627 421.586C616.517 421.438 616.51 420.043 616.611 418.487C617.021 412.137 614.507 403.928 610.504 398.543C607.283 394.21 602.884 390.539 600.677 390.342C598.56 390.154 597.874 390.519 596.854 392.378C595.666 394.547 596.369 396.191 599.699 399.032C605.738 404.185 608.982 411.86 608.264 419.295C607.864 423.427 608.113 424.841 609.591 426.841C610.971 428.709 611.934 429.24 616.226 430.503C626.425 433.507 633.654 441.3 635.55 451.338C636.932 458.654 634.537 466.156 629.134 471.44C627.795 472.75 626.452 474.504 626.15 475.337C625.576 476.919 626.045 480.503 626.993 481.786C627.848 482.943 628.812 488.498 628.67 491.443C628.596 492.966 627.743 495.667 626.674 497.762C625.006 501.036 624.411 501.715 621.038 504.207C617.679 506.688 616.833 507.069 613.291 507.689C608.362 508.552 603.018 507.604 598.346 505.04C595.452 503.45 594.217 502.361 590.993 498.553C587.069 493.918 585.687 492.879 582.594 492.235C579.872 491.669 577.75 492.234 572.808 494.84C564.35 499.301 556.296 499.334 548.144 494.94C544.038 492.727 543.834 492.538 540.126 487.521C536.496 482.609 536.281 482.175 535.43 478.05C534.653 474.285 534.258 473.401 532.375 471.199C529.396 467.717 526.396 466.681 520.884 467.232C511.444 468.176 504.139 464.829 499.135 457.269C495.934 452.433 495.01 448.183 496.033 443.002C497.322 436.475 501.453 431.784 508.323 429.044C512.625 427.329 513.384 426.047 514.207 419.108C515.031 412.153 517.152 407.736 521.508 403.906C526.802 399.251 533.43 397.392 541.307 398.354C545.257 398.836 547.043 399.455 551.687 401.952C558.642 405.692 560.371 405.778 563.658 402.548C564.854 401.373 567.712 399.007 570.01 397.291C573.979 394.328 574.435 394.125 579.148 393.225C584.713 392.163 586.033 391.1 585.625 388.007C585.154 384.433 580.501 383.674 573.147 385.972C569.716 387.045 561.679 392.226 559.81 394.571L558.571 396.126L555.027 394.194C542.226 387.215 526.824 388.45 516.438 397.29C514.595 398.86 512.444 401.105 511.66 402.282C510.876 403.458 510.145 404.404 510.036 404.386C509.928 404.366 508.534 403.602 506.938 402.688C503.803 400.89 496.555 398.495 494.373 398.536C493.035 398.561 493.015 398.529 491.648 394.151C489.847 388.381 484.284 379.978 479.841 376.316C468.677 367.115 453.663 364.677 439.059 369.692C435.671 370.856 434 371.814 429.235 375.33C426.078 377.66 422.974 380.17 422.337 380.909C421.204 382.224 421.129 382.215 418.712 380.473C412.039 375.665 402.452 372.748 394.219 373.022C383.713 373.372 372.492 378.62 365.469 386.467ZM510.508 474.956C511.663 475.199 511.833 476.025 512.6 485.177C513.386 494.548 513.364 507.588 512.554 512.051L512.191 514.049L511.508 512.478C508.806 506.262 503.871 485.053 502.686 474.57L502.372 471.793L505.812 473.243C507.703 474.04 509.817 474.811 510.508 474.956ZM452.011 516.961C453.912 516.487 455.658 516.364 455.89 516.688C457.542 518.993 460.308 524.375 459.794 524.283C459.233 524.181 448.313 517.991 448.486 517.872C448.523 517.846 450.11 517.436 452.011 516.961ZM480.204 497.024C480.492 498.239 481.194 501.14 481.763 503.473C482.332 505.804 482.666 507.692 482.505 507.666C482.345 507.641 480.727 506.157 478.91 504.368C475.918 501.421 475.661 501.046 476.185 500.389C476.503 499.991 477.28 498.702 477.912 497.526C479.506 494.555 479.613 494.531 480.204 497.024ZM522.271 475.55C524.555 475.187 525.352 475.412 526.307 476.685C526.691 477.197 527.078 484.985 527.166 493.994C527.31 508.638 527.465 510.557 528.626 512.129C529.662 513.531 530.456 513.97 532.55 514.299C536.038 514.848 537.69 513.558 541.459 507.345L544.377 502.534L546.696 503.581C547.971 504.156 549.1 504.766 549.204 504.935C549.308 505.105 548.703 507.623 547.859 510.53C546.187 516.295 546.208 518.374 547.963 520.749C549.34 522.612 552.628 523.597 554.68 522.76C555.45 522.446 561.446 517.21 568.004 511.124C579.636 500.33 579.957 500.07 581.159 500.454C581.837 500.671 583.01 501.685 583.766 502.709L585.141 504.569L577.757 510.507C558.895 525.676 547.943 539.991 538.527 561.785C536.465 566.555 534.398 570.64 533.933 570.861C533.438 571.096 527.661 568.863 519.975 565.464C507.149 559.792 506.871 559.636 507.213 558.294C507.406 557.539 509.088 553.351 510.95 548.987C515.764 537.708 518.391 528.323 520.118 516.222C521.757 504.739 521.939 496.194 520.807 483.997C520.403 479.645 520.127 476.033 520.194 475.971C520.261 475.91 521.195 475.72 522.271 475.55ZM537.397 497.883C537.339 498.2 536.929 498.948 536.487 499.547C535.636 500.698 535.643 500.713 535.456 497.377L535.373 495.896L536.439 496.601C537.025 496.989 537.456 497.566 537.397 497.883ZM560.168 506.792C560.306 506.978 559.572 507.751 558.536 508.508L556.653 509.884L557.108 508.252C557.47 506.958 557.807 506.603 558.74 506.536C559.388 506.49 560.03 506.604 560.168 506.792Z"/>
</mask>
<path fill-rule="evenodd" clip-rule="evenodd" d="M365.469 386.467C355.797 397.274 352.472 411.843 356.696 424.902C357.675 427.931 357.741 428.811 357.019 429.193C347.284 434.335 337.631 444.073 336.85 449.539C336.483 452.108 337.212 453.241 339.677 453.936C341.283 454.389 341.74 454.254 343.179 452.903C344.089 452.049 345.702 450.031 346.762 448.419C349.269 444.606 355.234 439.557 360.133 437.101C366.41 433.955 367.576 430.872 365.1 423.974C361.632 414.318 362.992 404.197 368.917 395.573C379.126 380.711 400.143 376.84 413.96 387.275C418.179 390.461 420.071 391.068 423.151 390.226C425.289 389.642 426.031 389.153 428.117 386.956C436.292 378.348 446.914 374.333 457.833 375.726C467.46 376.954 473.649 380.442 479.014 387.66C481.772 391.371 482.392 392.613 483.996 397.653C486.329 404.979 487.21 405.777 494.486 407.156C497.62 407.75 500.994 408.879 503.112 410.041L506.59 411.951L506.206 416.369C505.839 420.585 505.741 420.823 504.036 421.602C503.054 422.051 500.177 423.975 497.642 425.878C493.955 428.647 492.706 429.885 491.395 432.074C486.917 439.544 486.198 448.24 489.363 456.667L490.527 459.768L486.951 460.181C483.864 460.536 482.951 460.905 480.285 462.876C476.182 465.908 474.78 469.101 475.046 474.811C475.402 482.472 473.544 489.51 469.625 495.342C466.852 499.469 459.955 505.091 455.16 507.133C447.63 510.34 438.597 510.406 429.527 507.32C424.946 505.761 421.526 506.3 417.6 509.201C414.769 511.293 414.351 511.847 412.774 515.599C410.479 521.055 408.913 523.469 405.487 526.836C394.161 537.964 375.939 537.694 365.925 526.252C361.14 520.785 359.377 514.444 360.269 505.912C360.677 502.011 360.585 499.831 359.959 498.546C358.97 496.517 358.88 496.439 353.908 493.285C350.851 491.346 349.89 490.393 346.71 486.146C342.473 480.486 341.116 477.252 340.531 471.422C340.102 467.145 338.958 465.173 336.702 464.818C334.397 464.455 332.47 466.149 332.185 468.788C331.847 471.909 333.142 478.198 335.112 482.998C337.964 489.947 344.236 497.338 350.2 500.778L352.523 502.117L351.981 505.715C351.324 510.075 351.76 515.101 353.241 520.259C354.181 523.533 354.909 524.881 358.118 529.28C362.765 535.653 366.701 538.698 373.521 541.198C386.218 545.853 401.308 542.64 410.87 533.245C413.887 530.281 414.032 530.199 415.481 530.639C418.462 531.545 443.603 544.832 448.316 547.993C463.759 558.351 476.772 571.243 490.411 589.699C496.402 597.806 496.878 598.334 499.229 599.483C500.596 600.151 503.006 600.676 504.585 600.651C507.224 600.61 507.817 600.359 511.906 597.554C515.932 594.792 516.378 594.347 516.587 592.883C516.926 590.508 515.052 588.215 512.702 588.128C511.244 588.074 510.22 588.528 507.855 590.275C503.403 593.565 503.573 593.657 496.58 584.197C476.378 556.87 458.166 541.865 427.192 527.03L418.668 522.947L420.083 519.626C421.566 516.144 423.69 514.32 425.839 514.683C426.377 514.773 434.704 519.454 444.342 525.084C463.896 536.503 464.893 536.89 468.307 534.367C469.933 533.166 470.381 532.426 470.781 530.289C471.262 527.721 471.206 527.56 467.295 520.234L463.319 512.79L466.774 510.038L470.228 507.286L475.069 512.213C481.699 518.963 482.814 519.805 485.361 519.983C487.001 520.099 488.06 519.769 489.52 518.69C492.955 516.152 492.857 514.513 488.067 494.155C482.66 471.172 482.909 472.568 483.91 470.885C484.964 469.113 486.665 468.38 490.219 468.164C491.717 468.074 493.007 467.987 493.087 467.973C493.166 467.958 494.165 473.753 495.304 480.851C498.12 498.379 502.032 512.321 507.629 524.776L509.41 528.739L507.837 533.701C506.973 536.43 504.661 542.451 502.699 547.081C498.87 556.12 498.278 559.067 499.614 562.441C500.895 565.678 502.814 566.914 514.741 572.181C522.101 575.432 525.292 577.098 524.99 577.532C524.748 577.879 524.408 579.16 524.235 580.377C523.869 582.933 525.197 584.532 527.843 584.723C529.22 584.822 530.106 584.283 535.708 579.938L542.022 575.042L545.363 567.097C554.79 544.687 564.735 531.539 583.556 516.607L591.238 510.511L595.168 512.698C598.182 514.374 600.462 515.092 604.947 515.771C611.159 516.713 615.338 516.289 620.652 514.178C633.613 509.029 640.19 493.906 635.286 480.528C634.511 478.413 634.559 478.264 636.914 475.409C644.132 466.662 646.127 455.583 642.414 444.86C641.179 441.292 640.213 439.52 637.553 435.939C632.681 429.382 627.904 425.799 620.528 423.174C618.492 422.449 616.736 421.735 616.627 421.586C616.517 421.438 616.51 420.043 616.611 418.487C617.021 412.137 614.507 403.928 610.504 398.543C607.283 394.21 602.884 390.539 600.677 390.342C598.56 390.154 597.874 390.519 596.854 392.378C595.666 394.547 596.369 396.191 599.699 399.032C605.738 404.185 608.982 411.86 608.264 419.295C607.864 423.427 608.113 424.841 609.591 426.841C610.971 428.709 611.934 429.24 616.226 430.503C626.425 433.507 633.654 441.3 635.55 451.338C636.932 458.654 634.537 466.156 629.134 471.44C627.795 472.75 626.452 474.504 626.15 475.337C625.576 476.919 626.045 480.503 626.993 481.786C627.848 482.943 628.812 488.498 628.67 491.443C628.596 492.966 627.743 495.667 626.674 497.762C625.006 501.036 624.411 501.715 621.038 504.207C617.679 506.688 616.833 507.069 613.291 507.689C608.362 508.552 603.018 507.604 598.346 505.04C595.452 503.45 594.217 502.361 590.993 498.553C587.069 493.918 585.687 492.879 582.594 492.235C579.872 491.669 577.75 492.234 572.808 494.84C564.35 499.301 556.296 499.334 548.144 494.94C544.038 492.727 543.834 492.538 540.126 487.521C536.496 482.609 536.281 482.175 535.43 478.05C534.653 474.285 534.258 473.401 532.375 471.199C529.396 467.717 526.396 466.681 520.884 467.232C511.444 468.176 504.139 464.829 499.135 457.269C495.934 452.433 495.01 448.183 496.033 443.002C497.322 436.475 501.453 431.784 508.323 429.044C512.625 427.329 513.384 426.047 514.207 419.108C515.031 412.153 517.152 407.736 521.508 403.906C526.802 399.251 533.43 397.392 541.307 398.354C545.257 398.836 547.043 399.455 551.687 401.952C558.642 405.692 560.371 405.778 563.658 402.548C564.854 401.373 567.712 399.007 570.01 397.291C573.979 394.328 574.435 394.125 579.148 393.225C584.713 392.163 586.033 391.1 585.625 388.007C585.154 384.433 580.501 383.674 573.147 385.972C569.716 387.045 561.679 392.226 559.81 394.571L558.571 396.126L555.027 394.194C542.226 387.215 526.824 388.45 516.438 397.29C514.595 398.86 512.444 401.105 511.66 402.282C510.876 403.458 510.145 404.404 510.036 404.386C509.928 404.366 508.534 403.602 506.938 402.688C503.803 400.89 496.555 398.495 494.373 398.536C493.035 398.561 493.015 398.529 491.648 394.151C489.847 388.381 484.284 379.978 479.841 376.316C468.677 367.115 453.663 364.677 439.059 369.692C435.671 370.856 434 371.814 429.235 375.33C426.078 377.66 422.974 380.17 422.337 380.909C421.204 382.224 421.129 382.215 418.712 380.473C412.039 375.665 402.452 372.748 394.219 373.022C383.713 373.372 372.492 378.62 365.469 386.467ZM510.508 474.956C511.663 475.199 511.833 476.025 512.6 485.177C513.386 494.548 513.364 507.588 512.554 512.051L512.191 514.049L511.508 512.478C508.806 506.262 503.871 485.053 502.686 474.57L502.372 471.793L505.812 473.243C507.703 474.04 509.817 474.811 510.508 474.956ZM452.011 516.961C453.912 516.487 455.658 516.364 455.89 516.688C457.542 518.993 460.308 524.375 459.794 524.283C459.233 524.181 448.313 517.991 448.486 517.872C448.523 517.846 450.11 517.436 452.011 516.961ZM480.204 497.024C480.492 498.239 481.194 501.14 481.763 503.473C482.332 505.804 482.666 507.692 482.505 507.666C482.345 507.641 480.727 506.157 478.91 504.368C475.918 501.421 475.661 501.046 476.185 500.389C476.503 499.991 477.28 498.702 477.912 497.526C479.506 494.555 479.613 494.531 480.204 497.024ZM522.271 475.55C524.555 475.187 525.352 475.412 526.307 476.685C526.691 477.197 527.078 484.985 527.166 493.994C527.31 508.638 527.465 510.557 528.626 512.129C529.662 513.531 530.456 513.97 532.55 514.299C536.038 514.848 537.69 513.558 541.459 507.345L544.377 502.534L546.696 503.581C547.971 504.156 549.1 504.766 549.204 504.935C549.308 505.105 548.703 507.623 547.859 510.53C546.187 516.295 546.208 518.374 547.963 520.749C549.34 522.612 552.628 523.597 554.68 522.76C555.45 522.446 561.446 517.21 568.004 511.124C579.636 500.33 579.957 500.07 581.159 500.454C581.837 500.671 583.01 501.685 583.766 502.709L585.141 504.569L577.757 510.507C558.895 525.676 547.943 539.991 538.527 561.785C536.465 566.555 534.398 570.64 533.933 570.861C533.438 571.096 527.661 568.863 519.975 565.464C507.149 559.792 506.871 559.636 507.213 558.294C507.406 557.539 509.088 553.351 510.95 548.987C515.764 537.708 518.391 528.323 520.118 516.222C521.757 504.739 521.939 496.194 520.807 483.997C520.403 479.645 520.127 476.033 520.194 475.971C520.261 475.91 521.195 475.72 522.271 475.55ZM537.397 497.883C537.339 498.2 536.929 498.948 536.487 499.547C535.636 500.698 535.643 500.713 535.456 497.377L535.373 495.896L536.439 496.601C537.025 496.989 537.456 497.566 537.397 497.883ZM560.168 506.792C560.306 506.978 559.572 507.751 558.536 508.508L556.653 509.884L557.108 508.252C557.47 506.958 557.807 506.603 558.74 506.536C559.388 506.49 560.03 506.604 560.168 506.792Z" fill="black" stroke="white" stroke-width="2" mask="url(#path-6-inside-3_186_228)"/>
<path d="M435.467 682.097L435.33 682.291L435.393 682.519L435.957 684.565C437.076 688.626 438.495 696.741 439.124 702.703C440.259 713.468 440.166 717.185 438.476 728.572C437.14 737.567 436.763 739.282 435.359 742.943C433.142 748.719 430.412 753.884 427.174 758.434C426.412 759.503 425.708 760.547 425.187 761.367C424.927 761.777 424.71 762.136 424.553 762.416C424.474 762.556 424.408 762.683 424.358 762.789C424.316 762.878 424.26 763.007 424.242 763.129C424.215 763.316 424.267 763.502 424.311 763.628C424.361 763.774 424.434 763.935 424.523 764.106C424.7 764.45 424.958 764.874 425.273 765.351C425.905 766.308 426.79 767.515 427.775 768.778C429.743 771.299 432.147 774.09 433.789 775.605C443.209 784.293 456.042 790.004 468.834 791.202C489.603 793.147 508.357 785.139 519.489 769.518C530.124 754.595 533.316 731.522 528.38 706.102C527.065 699.334 525.903 695.156 523.223 687.563C519.453 676.881 514.694 667.668 509.36 660.5C504.029 653.337 498.103 648.188 491.993 645.678C483.436 642.164 473.887 644.696 461.986 653.341L462.28 653.746L461.986 653.341C453.808 659.283 445.526 667.913 438.548 677.753L435.467 682.097ZM430.899 668.054L431.348 667.878L430.899 668.054C431.412 669.362 431.898 670.556 432.268 671.426C432.453 671.861 432.611 672.219 432.73 672.471C432.789 672.596 432.841 672.703 432.885 672.782C432.906 672.82 432.932 672.864 432.96 672.904C432.973 672.922 432.997 672.954 433.029 672.987C433.046 673.004 433.073 673.03 433.112 673.055C433.146 673.078 433.219 673.122 433.322 673.137C433.484 673.161 433.606 673.099 433.628 673.088C433.671 673.067 433.705 673.043 433.724 673.029C433.763 673 433.8 672.966 433.829 672.939C433.889 672.881 433.961 672.804 434.041 672.716C434.202 672.537 434.419 672.281 434.675 671.971C435.187 671.348 435.867 670.489 436.593 669.543C448.305 654.273 463.087 642.747 475.399 639.193C484.455 636.579 492.989 638.002 500.875 643.447C511.371 650.692 520.644 663.797 527.246 679.459C533.845 695.114 537.754 713.271 537.561 730.568C537.349 749.655 531.2 766.505 520.039 778.696C511.387 788.146 500.758 794.342 489.064 796.768C464.065 801.954 437.763 792.591 422.586 773.127C420.971 771.056 419.939 769.791 419.289 769.155C419.125 768.994 418.972 768.861 418.83 768.762C418.698 768.67 418.527 768.572 418.333 768.548C418.226 768.535 418.106 768.544 417.986 768.594C417.865 768.644 417.774 768.724 417.709 768.809C417.612 768.937 417.567 769.083 417.543 769.205C417.538 769.212 417.532 769.219 417.526 769.227C417.476 769.286 417.396 769.37 417.278 769.48C417.046 769.698 416.707 769.983 416.281 770.319C415.431 770.99 414.265 771.842 412.987 772.732C410.426 774.516 407.455 776.427 405.719 777.324C397.588 781.525 388.69 783.684 378.969 783.807C357.67 784.078 338.854 775.945 327.094 761.445C311.57 742.303 308.889 716.709 319.619 689.026C326.366 671.619 337.072 655.65 349.001 643.83C360.942 631.998 374.046 624.382 385.58 623.557C391.208 623.155 397.681 625.127 403.396 629.031C414.11 636.349 423.909 650.21 430.899 668.054ZM343.836 681.471L343.836 681.471C345.17 680.821 347.088 681.219 348.134 682.399L348.494 682.08L348.134 682.399C348.425 682.727 348.614 683.047 348.717 683.389C348.82 683.731 348.847 684.124 348.775 684.612C348.627 685.609 348.076 686.938 347.021 688.894L347.461 689.132L347.021 688.894C344.55 693.475 342.165 699.608 340.389 705.928C338.427 712.912 337.942 719.356 338.985 724.938L339.476 724.846L338.985 724.938C339.497 727.681 339.522 729.468 339.1 730.588C338.896 731.128 338.59 731.507 338.176 731.773C337.753 732.046 337.186 732.221 336.431 732.293C335.58 732.373 334.838 732.063 334.19 731.343C333.525 730.605 332.964 729.439 332.551 727.846C331.727 724.665 331.539 719.957 332.127 714.125C333.003 705.447 335.877 696.055 340.52 686.748L340.08 686.529L340.52 686.748C341.386 685.01 342.078 683.744 342.639 682.872C342.92 682.437 343.162 682.11 343.37 681.875C343.582 681.636 343.736 681.52 343.836 681.471ZM472.975 658.654L472.703 658.296L472.975 658.654C475.15 657.008 475.901 656.728 476.666 656.841C477.493 656.963 478.087 657.204 478.538 657.572C478.988 657.94 479.338 658.47 479.613 659.248C479.781 659.721 479.855 660.106 479.843 660.457C479.831 660.801 479.735 661.14 479.516 661.52C479.058 662.311 478.095 663.235 476.34 664.628C470.333 669.395 462.73 677.441 459.377 682.593C456.882 686.428 454.59 691.271 453.811 694.396C453.435 695.902 453.108 697.078 452.783 697.99C452.457 698.906 452.146 699.523 451.818 699.934C451.502 700.33 451.169 700.537 450.77 700.635C450.349 700.739 449.819 700.73 449.099 700.624C448.055 700.47 447.285 699.944 446.812 699.151C446.332 698.346 446.131 697.221 446.333 695.85C446.576 694.204 447.357 691.695 448.405 689.043C449.451 686.398 450.748 683.651 452.001 681.536C456.542 673.872 464.852 664.802 472.975 658.654ZM432.312 700.916C430.142 684.532 425.143 669.088 418.521 656.831C411.908 644.591 403.639 635.462 394.891 631.819C389.946 629.76 384.801 629.67 379.063 631.509C364.754 636.095 349.984 650.171 338.841 667.287C327.693 684.412 320.099 704.695 320.242 721.807C320.447 746.394 333.417 764.918 356.49 773.581C359.245 774.615 363.537 775.585 367.845 776.261C372.152 776.937 376.528 777.328 379.453 777.185C406.371 775.869 425.759 759.469 431.405 733.235C433.511 723.45 433.82 712.313 432.312 700.916Z" fill="black" stroke="white"/>
<path d="M145.44 379.226L141.647 359.08C141.694 357.747 140.889 355.05 137.291 354.923C133.693 354.797 136.227 370.896 137.944 378.961L151.266 398.443C153.628 411.868 162.6 440.268 179.592 446.471C200.832 454.224 194.624 460.009 236.745 471.5C270.443 480.693 299.963 461.721 310.51 451.086L293.926 438.994L277.412 424.904L263.421 424.41L239.053 406.04L208.625 403.467L189.989 392.804L160.201 386.25L145.44 379.226Z" fill="#50D87E" stroke="black"/>
<mask id="path-9-inside-4_186_228" fill="white">
<path fill-rule="evenodd" clip-rule="evenodd" d="M317.085 449.771C316.451 452.308 306.548 460.565 298.848 464.978C282.246 474.492 262.508 478.127 244.011 475.076C235.081 473.603 227.215 471.075 218.602 466.91C204 459.847 198.194 457.28 192.501 455.37C185.982 453.182 182.942 451.867 179.258 449.643C170.255 444.207 161.759 435.288 156.693 425.957C155.242 423.285 152.899 417.065 152.257 414.184C151.09 408.944 149.43 403.846 147.657 400.061C145.636 395.746 144.439 393.767 141.174 389.34C137.583 384.469 135.517 380.498 133.549 374.681C131.697 369.208 131.116 365.686 131.278 360.906C131.471 355.22 135.212 351.838 140.128 352.905C142.617 353.446 144.174 354.728 145.215 357.095C145.997 358.874 146.056 359.343 145.92 362.805C145.71 368.149 146.187 371.398 147.723 375.083C148.811 377.695 149.151 378.228 150.619 379.627C153.843 382.696 157.19 383.706 170.883 385.74C175.741 386.462 181.246 387.435 183.116 387.902C190.354 389.709 196.223 392.385 203.566 397.226C208.57 400.524 210.354 401.008 215.831 400.55C234.071 399.027 248.784 404.735 260.833 418.008L262.889 420.272L265.883 419.928C277.842 418.553 288.573 424.723 297.954 438.37C300.556 442.155 301.507 443.114 303.722 444.182C305.98 445.272 308.289 445.81 312.032 446.117C313.806 446.263 315.587 446.612 315.991 446.893C316.92 447.54 317.355 448.687 317.085 449.771ZM305.506 450.964C302.544 450.202 298.811 448.204 297 446.412C296.138 445.559 294.663 443.695 293.721 442.271C291.268 438.561 289.671 436.572 287.035 433.947C279.864 426.802 271.949 424.11 264.141 426.159C262.627 426.556 261.501 426.675 261.035 426.487C260.634 426.324 259.311 425.003 258.096 423.55C253.392 417.925 247.464 413.242 241.454 410.404C233.777 406.777 226.31 405.548 216.652 406.32C209.502 406.892 206.86 406.23 201.041 402.412C190.635 395.584 185.229 393.679 169.863 391.426C155.678 389.345 150.687 387.729 146.867 383.976C144.333 381.486 143.206 379.7 141.878 376.065C140.454 372.167 139.951 368.474 140.177 363.575C140.267 361.615 140.239 359.738 140.114 359.404C139.829 358.643 138.253 358.249 137.592 358.774C137.308 358.999 137.046 360.03 136.98 361.18C136.552 368.678 139.988 378.216 146.035 386.308C151.247 393.284 154.615 400.3 156.663 408.45C158.285 414.902 160.24 420.645 161.772 423.456C166.523 432.172 174.087 439.993 182.598 444.988C186.049 447.014 188.491 448.034 195.009 450.172C200.559 451.994 206.433 454.578 220.34 461.317C233.462 467.676 244.301 470.339 257.029 470.33C266.56 470.323 272.711 469.233 282.338 465.842C290.126 463.099 294.284 461.114 299.763 457.522C302.317 455.847 307.654 451.784 307.575 451.574C307.558 451.527 306.626 451.252 305.506 450.964ZM282.559 446.286C282.785 449.347 282.321 451.949 281.028 454.864C279.064 459.289 276.003 462.185 271.521 463.858C266.021 465.91 260.368 465.144 255.688 461.71C252.547 459.405 251.075 457.45 249.653 453.692C248.71 451.202 248.453 450.107 248.389 448.319C248.169 442.124 251.177 436.276 256.262 433.019C258.635 431.498 259.926 431.014 262.718 430.596C268.654 429.707 274.72 431.996 278.543 436.567C280.373 438.755 282.357 443.555 282.559 446.286ZM273.438 439.538C267.762 433.963 258.397 435.663 255.144 442.859C251.875 450.088 256.854 458.484 264.816 459.168C266.509 459.314 267.188 459.193 269.442 458.348C271.72 457.494 272.282 457.152 273.531 455.862C276.035 453.276 277.274 449.532 276.752 446.132C276.409 443.892 274.983 441.055 273.438 439.538ZM242.613 431.042C243.344 434.869 242.711 439.478 241.018 442.65C240.512 443.598 239.242 445.303 238.195 446.439C229.752 455.604 214.412 452.403 209.973 440.551C208.421 436.406 208.323 432.564 209.672 428.677C211.555 423.249 215.136 419.79 220.708 418.015C225.088 416.62 228.888 416.872 232.959 418.826C237.819 421.159 241.651 426.009 242.613 431.042ZM233.781 426.306C232.055 424.573 228.98 423.14 226.535 422.929C224.907 422.788 224.228 422.916 221.843 423.81C219.381 424.733 218.895 425.027 217.69 426.322C215.893 428.254 214.66 430.998 214.478 433.47C214.351 435.2 214.475 435.854 215.394 438.304C216.308 440.742 216.652 441.331 217.858 442.523C219.738 444.383 221.829 445.433 224.346 445.781C227.857 446.267 231.869 444.929 233.975 442.568C236.212 440.061 237.055 437.971 237.17 434.653C237.263 431.939 235.8 428.333 233.781 426.306ZM204.792 418.308C205.015 424.489 202.08 430.237 197.053 433.466C194.773 434.93 193.176 435.523 190.402 435.935C184.381 436.831 178.445 434.447 174.418 429.516C172.644 427.344 170.809 422.757 170.659 420.119C170.378 415.194 172.027 410.354 175.106 407.067C180.336 401.483 187.833 400.001 194.704 403.191C200.754 406 204.553 411.694 204.792 418.308ZM196.782 411.956C194.759 409.256 191.813 407.667 188.265 407.362C186.616 407.22 185.92 407.344 183.679 408.185C181.355 409.056 180.868 409.358 179.619 410.7C174.099 416.634 176.022 426.208 183.36 429.321C185.819 430.365 187.622 430.575 190.018 430.098C198.249 428.459 201.87 418.746 196.782 411.956Z"/>
</mask>
<path fill-rule="evenodd" clip-rule="evenodd" d="M317.085 449.771C316.451 452.308 306.548 460.565 298.848 464.978C282.246 474.492 262.508 478.127 244.011 475.076C235.081 473.603 227.215 471.075 218.602 466.91C204 459.847 198.194 457.28 192.501 455.37C185.982 453.182 182.942 451.867 179.258 449.643C170.255 444.207 161.759 435.288 156.693 425.957C155.242 423.285 152.899 417.065 152.257 414.184C151.09 408.944 149.43 403.846 147.657 400.061C145.636 395.746 144.439 393.767 141.174 389.34C137.583 384.469 135.517 380.498 133.549 374.681C131.697 369.208 131.116 365.686 131.278 360.906C131.471 355.22 135.212 351.838 140.128 352.905C142.617 353.446 144.174 354.728 145.215 357.095C145.997 358.874 146.056 359.343 145.92 362.805C145.71 368.149 146.187 371.398 147.723 375.083C148.811 377.695 149.151 378.228 150.619 379.627C153.843 382.696 157.19 383.706 170.883 385.74C175.741 386.462 181.246 387.435 183.116 387.902C190.354 389.709 196.223 392.385 203.566 397.226C208.57 400.524 210.354 401.008 215.831 400.55C234.071 399.027 248.784 404.735 260.833 418.008L262.889 420.272L265.883 419.928C277.842 418.553 288.573 424.723 297.954 438.37C300.556 442.155 301.507 443.114 303.722 444.182C305.98 445.272 308.289 445.81 312.032 446.117C313.806 446.263 315.587 446.612 315.991 446.893C316.92 447.54 317.355 448.687 317.085 449.771ZM305.506 450.964C302.544 450.202 298.811 448.204 297 446.412C296.138 445.559 294.663 443.695 293.721 442.271C291.268 438.561 289.671 436.572 287.035 433.947C279.864 426.802 271.949 424.11 264.141 426.159C262.627 426.556 261.501 426.675 261.035 426.487C260.634 426.324 259.311 425.003 258.096 423.55C253.392 417.925 247.464 413.242 241.454 410.404C233.777 406.777 226.31 405.548 216.652 406.32C209.502 406.892 206.86 406.23 201.041 402.412C190.635 395.584 185.229 393.679 169.863 391.426C155.678 389.345 150.687 387.729 146.867 383.976C144.333 381.486 143.206 379.7 141.878 376.065C140.454 372.167 139.951 368.474 140.177 363.575C140.267 361.615 140.239 359.738 140.114 359.404C139.829 358.643 138.253 358.249 137.592 358.774C137.308 358.999 137.046 360.03 136.98 361.18C136.552 368.678 139.988 378.216 146.035 386.308C151.247 393.284 154.615 400.3 156.663 408.45C158.285 414.902 160.24 420.645 161.772 423.456C166.523 432.172 174.087 439.993 182.598 444.988C186.049 447.014 188.491 448.034 195.009 450.172C200.559 451.994 206.433 454.578 220.34 461.317C233.462 467.676 244.301 470.339 257.029 470.33C266.56 470.323 272.711 469.233 282.338 465.842C290.126 463.099 294.284 461.114 299.763 457.522C302.317 455.847 307.654 451.784 307.575 451.574C307.558 451.527 306.626 451.252 305.506 450.964ZM282.559 446.286C282.785 449.347 282.321 451.949 281.028 454.864C279.064 459.289 276.003 462.185 271.521 463.858C266.021 465.91 260.368 465.144 255.688 461.71C252.547 459.405 251.075 457.45 249.653 453.692C248.71 451.202 248.453 450.107 248.389 448.319C248.169 442.124 251.177 436.276 256.262 433.019C258.635 431.498 259.926 431.014 262.718 430.596C268.654 429.707 274.72 431.996 278.543 436.567C280.373 438.755 282.357 443.555 282.559 446.286ZM273.438 439.538C267.762 433.963 258.397 435.663 255.144 442.859C251.875 450.088 256.854 458.484 264.816 459.168C266.509 459.314 267.188 459.193 269.442 458.348C271.72 457.494 272.282 457.152 273.531 455.862C276.035 453.276 277.274 449.532 276.752 446.132C276.409 443.892 274.983 441.055 273.438 439.538ZM242.613 431.042C243.344 434.869 242.711 439.478 241.018 442.65C240.512 443.598 239.242 445.303 238.195 446.439C229.752 455.604 214.412 452.403 209.973 440.551C208.421 436.406 208.323 432.564 209.672 428.677C211.555 423.249 215.136 419.79 220.708 418.015C225.088 416.62 228.888 416.872 232.959 418.826C237.819 421.159 241.651 426.009 242.613 431.042ZM233.781 426.306C232.055 424.573 228.98 423.14 226.535 422.929C224.907 422.788 224.228 422.916 221.843 423.81C219.381 424.733 218.895 425.027 217.69 426.322C215.893 428.254 214.66 430.998 214.478 433.47C214.351 435.2 214.475 435.854 215.394 438.304C216.308 440.742 216.652 441.331 217.858 442.523C219.738 444.383 221.829 445.433 224.346 445.781C227.857 446.267 231.869 444.929 233.975 442.568C236.212 440.061 237.055 437.971 237.17 434.653C237.263 431.939 235.8 428.333 233.781 426.306ZM204.792 418.308C205.015 424.489 202.08 430.237 197.053 433.466C194.773 434.93 193.176 435.523 190.402 435.935C184.381 436.831 178.445 434.447 174.418 429.516C172.644 427.344 170.809 422.757 170.659 420.119C170.378 415.194 172.027 410.354 175.106 407.067C180.336 401.483 187.833 400.001 194.704 403.191C200.754 406 204.553 411.694 204.792 418.308ZM196.782 411.956C194.759 409.256 191.813 407.667 188.265 407.362C186.616 407.22 185.92 407.344 183.679 408.185C181.355 409.056 180.868 409.358 179.619 410.7C174.099 416.634 176.022 426.208 183.36 429.321C185.819 430.365 187.622 430.575 190.018 430.098C198.249 428.459 201.87 418.746 196.782 411.956Z" fill="#197037" stroke="#197037" stroke-width="0.6" mask="url(#path-9-inside-4_186_228)"/>
<path d="M153.238 484.061L159.548 464.557C160.227 463.409 160.81 460.656 157.711 458.823C154.613 456.99 149.135 472.339 146.783 480.243L149.158 503.724C144.808 516.642 139.096 545.873 151.049 559.45C165.989 576.421 157.77 578.531 189.257 608.776C214.447 632.973 249.446 630.44 263.797 626.149L255.021 607.595L247.263 587.321L235.214 580.193L222.607 552.402L197.12 535.582L185.859 517.301L162.839 497.293L153.238 484.061Z" fill="#50D87E" stroke="black"/>
<mask id="path-11-inside-5_186_228" fill="white">
<path fill-rule="evenodd" clip-rule="evenodd" d="M270.199 628.14C268.429 630.064 255.782 632.576 246.909 632.766C227.779 633.176 208.708 626.923 193.926 615.393C186.79 609.827 181.092 603.843 175.523 596.064C166.08 582.876 162.21 577.843 158.125 573.441C153.448 568.401 151.408 565.792 149.238 562.075C143.934 552.994 140.74 541.098 140.758 530.48C140.762 527.44 141.681 520.856 142.496 518.02C143.979 512.86 144.96 507.589 145.215 503.418C145.505 498.661 145.401 496.351 144.653 490.901C143.83 484.906 143.916 480.43 144.971 474.38C145.964 468.689 147.14 465.318 149.569 461.199C152.459 456.298 157.362 455.119 161.168 458.408C163.096 460.074 163.849 461.945 163.631 464.522C163.466 466.457 163.293 466.897 161.517 469.872C158.776 474.465 157.64 477.546 157.225 481.517C156.931 484.33 156.974 484.962 157.594 486.892C158.956 491.129 161.412 493.618 172.461 501.957C176.382 504.915 180.75 508.404 182.169 509.709C187.66 514.759 191.533 519.917 195.665 527.681C198.48 532.972 199.814 534.25 204.843 536.469C221.588 543.86 231.776 555.912 236.005 573.332L236.726 576.304L239.52 577.434C250.679 581.95 257.149 592.503 258.857 608.975C259.33 613.543 259.707 614.84 261.14 616.839C262.601 618.876 264.372 620.453 267.511 622.514C268.999 623.491 270.396 624.65 270.616 625.089C271.122 626.102 270.956 627.318 270.199 628.14ZM259.461 623.647C257.225 621.561 254.903 618.02 254.171 615.58C253.822 614.418 253.418 612.076 253.273 610.375C252.894 605.943 252.443 603.432 251.386 599.866C248.508 590.161 242.846 584.01 235.009 582.073C233.489 581.697 232.444 581.262 232.125 580.874C231.851 580.539 231.321 578.746 230.95 576.889C229.51 569.699 226.546 562.75 222.627 557.382C217.621 550.524 211.653 545.872 202.803 541.928C196.251 539.009 194.248 537.164 190.965 531.027C185.095 520.051 181.26 515.792 168.846 506.461C157.385 497.846 153.777 494.039 152.218 488.916C151.184 485.517 151.05 483.409 151.623 479.581C152.238 475.477 153.563 471.994 156.106 467.801C157.123 466.122 157.996 464.461 158.046 464.108C158.16 463.303 156.965 462.203 156.134 462.348C155.777 462.409 155.053 463.19 154.445 464.168C150.481 470.546 148.934 480.566 150.371 490.565C151.61 499.184 151.21 506.957 149.109 515.093C147.445 521.535 146.414 527.513 146.414 530.715C146.415 540.641 149.315 551.128 154.398 559.587C156.459 563.016 158.115 565.08 162.815 570.078C166.817 574.333 170.738 579.413 179.725 591.985C188.204 603.848 196.447 611.372 207.627 617.455C216 622.01 221.923 623.996 231.998 625.625C240.149 626.943 244.751 627.19 251.28 626.657C254.325 626.409 260.955 625.395 260.986 625.173C260.993 625.123 260.307 624.436 259.461 623.647ZM241.55 608.559C240.285 611.355 238.632 613.418 236.101 615.358C232.26 618.304 228.186 619.382 223.45 618.706C217.638 617.877 213.041 614.499 210.575 609.244C208.92 605.718 208.563 603.296 209.112 599.316C209.476 596.678 209.774 595.594 210.574 593.993C213.344 588.448 218.785 584.753 224.808 584.326C227.62 584.126 228.985 584.318 231.636 585.287C237.274 587.348 241.505 592.26 242.675 598.103C243.235 600.9 242.679 606.064 241.55 608.559ZM236.771 598.269C234.454 590.658 225.418 587.669 219.118 592.431C212.788 597.214 213.143 606.97 219.806 611.38C221.223 612.318 221.877 612.537 224.26 612.874C226.67 613.214 227.327 613.183 229.041 612.648C232.477 611.575 235.357 608.88 236.526 605.645C237.296 603.514 237.401 600.341 236.771 598.269ZM213.769 576.058C212.58 579.769 209.818 583.513 206.814 585.488C205.917 586.078 203.985 586.968 202.522 587.465C190.723 591.472 178.785 581.321 180.558 568.79C181.179 564.408 182.932 560.987 185.976 558.219C190.227 554.355 195.026 553.031 200.768 554.139C205.282 555.009 208.498 557.049 211.137 560.712C214.289 565.087 215.333 571.179 213.769 576.058ZM208.28 567.674C207.594 565.327 205.579 562.596 203.533 561.241C202.171 560.339 201.514 560.126 198.992 559.77C196.389 559.402 195.821 559.428 194.144 559.989C191.641 560.825 189.246 562.644 187.903 564.728C186.963 566.186 186.759 566.82 186.393 569.411C186.029 571.989 186.05 572.67 186.538 574.295C187.3 576.827 188.633 578.75 190.677 580.26C193.527 582.367 197.69 583.111 200.669 582.046C203.833 580.915 205.574 579.484 207.262 576.625C208.643 574.286 209.083 570.419 208.28 567.674ZM186.653 546.78C183.891 552.313 178.564 555.957 172.604 556.386C169.901 556.581 168.215 556.337 165.583 555.372C159.866 553.277 155.795 548.344 154.619 542.087C154.101 539.33 154.684 534.425 155.814 532.036C157.924 527.578 161.688 524.117 165.965 522.704C173.229 520.304 180.521 522.589 185.029 528.679C188.996 534.04 189.608 540.857 186.653 546.78ZM182.659 537.369C182.174 534.031 180.348 531.225 177.379 529.259C175.999 528.346 175.328 528.122 172.958 527.788C170.5 527.441 169.928 527.473 168.189 528.054C160.503 530.623 157.61 539.949 162.563 546.194C164.224 548.287 165.706 549.335 168.038 550.062C176.05 552.562 183.877 545.766 182.659 537.369Z"/>
</mask>
<path fill-rule="evenodd" clip-rule="evenodd" d="M270.199 628.14C268.429 630.064 255.782 632.576 246.909 632.766C227.779 633.176 208.708 626.923 193.926 615.393C186.79 609.827 181.092 603.843 175.523 596.064C166.08 582.876 162.21 577.843 158.125 573.441C153.448 568.401 151.408 565.792 149.238 562.075C143.934 552.994 140.74 541.098 140.758 530.48C140.762 527.44 141.681 520.856 142.496 518.02C143.979 512.86 144.96 507.589 145.215 503.418C145.505 498.661 145.401 496.351 144.653 490.901C143.83 484.906 143.916 480.43 144.971 474.38C145.964 468.689 147.14 465.318 149.569 461.199C152.459 456.298 157.362 455.119 161.168 458.408C163.096 460.074 163.849 461.945 163.631 464.522C163.466 466.457 163.293 466.897 161.517 469.872C158.776 474.465 157.64 477.546 157.225 481.517C156.931 484.33 156.974 484.962 157.594 486.892C158.956 491.129 161.412 493.618 172.461 501.957C176.382 504.915 180.75 508.404 182.169 509.709C187.66 514.759 191.533 519.917 195.665 527.681C198.48 532.972 199.814 534.25 204.843 536.469C221.588 543.86 231.776 555.912 236.005 573.332L236.726 576.304L239.52 577.434C250.679 581.95 257.149 592.503 258.857 608.975C259.33 613.543 259.707 614.84 261.14 616.839C262.601 618.876 264.372 620.453 267.511 622.514C268.999 623.491 270.396 624.65 270.616 625.089C271.122 626.102 270.956 627.318 270.199 628.14ZM259.461 623.647C257.225 621.561 254.903 618.02 254.171 615.58C253.822 614.418 253.418 612.076 253.273 610.375C252.894 605.943 252.443 603.432 251.386 599.866C248.508 590.161 242.846 584.01 235.009 582.073C233.489 581.697 232.444 581.262 232.125 580.874C231.851 580.539 231.321 578.746 230.95 576.889C229.51 569.699 226.546 562.75 222.627 557.382C217.621 550.524 211.653 545.872 202.803 541.928C196.251 539.009 194.248 537.164 190.965 531.027C185.095 520.051 181.26 515.792 168.846 506.461C157.385 497.846 153.777 494.039 152.218 488.916C151.184 485.517 151.05 483.409 151.623 479.581C152.238 475.477 153.563 471.994 156.106 467.801C157.123 466.122 157.996 464.461 158.046 464.108C158.16 463.303 156.965 462.203 156.134 462.348C155.777 462.409 155.053 463.19 154.445 464.168C150.481 470.546 148.934 480.566 150.371 490.565C151.61 499.184 151.21 506.957 149.109 515.093C147.445 521.535 146.414 527.513 146.414 530.715C146.415 540.641 149.315 551.128 154.398 559.587C156.459 563.016 158.115 565.08 162.815 570.078C166.817 574.333 170.738 579.413 179.725 591.985C188.204 603.848 196.447 611.372 207.627 617.455C216 622.01 221.923 623.996 231.998 625.625C240.149 626.943 244.751 627.19 251.28 626.657C254.325 626.409 260.955 625.395 260.986 625.173C260.993 625.123 260.307 624.436 259.461 623.647ZM241.55 608.559C240.285 611.355 238.632 613.418 236.101 615.358C232.26 618.304 228.186 619.382 223.45 618.706C217.638 617.877 213.041 614.499 210.575 609.244C208.92 605.718 208.563 603.296 209.112 599.316C209.476 596.678 209.774 595.594 210.574 593.993C213.344 588.448 218.785 584.753 224.808 584.326C227.62 584.126 228.985 584.318 231.636 585.287C237.274 587.348 241.505 592.26 242.675 598.103C243.235 600.9 242.679 606.064 241.55 608.559ZM236.771 598.269C234.454 590.658 225.418 587.669 219.118 592.431C212.788 597.214 213.143 606.97 219.806 611.38C221.223 612.318 221.877 612.537 224.26 612.874C226.67 613.214 227.327 613.183 229.041 612.648C232.477 611.575 235.357 608.88 236.526 605.645C237.296 603.514 237.401 600.341 236.771 598.269ZM213.769 576.058C212.58 579.769 209.818 583.513 206.814 585.488C205.917 586.078 203.985 586.968 202.522 587.465C190.723 591.472 178.785 581.321 180.558 568.79C181.179 564.408 182.932 560.987 185.976 558.219C190.227 554.355 195.026 553.031 200.768 554.139C205.282 555.009 208.498 557.049 211.137 560.712C214.289 565.087 215.333 571.179 213.769 576.058ZM208.28 567.674C207.594 565.327 205.579 562.596 203.533 561.241C202.171 560.339 201.514 560.126 198.992 559.77C196.389 559.402 195.821 559.428 194.144 559.989C191.641 560.825 189.246 562.644 187.903 564.728C186.963 566.186 186.759 566.82 186.393 569.411C186.029 571.989 186.05 572.67 186.538 574.295C187.3 576.827 188.633 578.75 190.677 580.26C193.527 582.367 197.69 583.111 200.669 582.046C203.833 580.915 205.574 579.484 207.262 576.625C208.643 574.286 209.083 570.419 208.28 567.674ZM186.653 546.78C183.891 552.313 178.564 555.957 172.604 556.386C169.901 556.581 168.215 556.337 165.583 555.372C159.866 553.277 155.795 548.344 154.619 542.087C154.101 539.33 154.684 534.425 155.814 532.036C157.924 527.578 161.688 524.117 165.965 522.704C173.229 520.304 180.521 522.589 185.029 528.679C188.996 534.04 189.608 540.857 186.653 546.78ZM182.659 537.369C182.174 534.031 180.348 531.225 177.379 529.259C175.999 528.346 175.328 528.122 172.958 527.788C170.5 527.441 169.928 527.473 168.189 528.054C160.503 530.623 157.61 539.949 162.563 546.194C164.224 548.287 165.706 549.335 168.038 550.062C176.05 552.562 183.877 545.766 182.659 537.369Z" fill="#197037" stroke="#197037" stroke-width="0.6" mask="url(#path-11-inside-5_186_228)"/>
</svg>
