<svg width="505" height="362" viewBox="0 0 505 362" fill="none" xmlns="http://www.w3.org/2000/svg">
<path d="M474.986 341.999L475.607 344.328L476.817 342.244L495.671 309.766C496.966 307.536 499.715 306.852 501.815 308.175C503.942 309.514 504.65 312.428 503.342 314.681L477.767 358.736C476.473 360.966 473.724 361.651 471.623 360.328L429.319 333.694C427.193 332.355 426.485 329.44 427.793 327.188C429.087 324.958 431.836 324.273 433.937 325.596L464.642 344.928L466.802 346.288L466.141 343.823C431.649 215.29 350.343 133.088 261.443 82.4118C169.346 29.9128 69.2921 11.384 5.4294 10.4397C2.98579 10.4036 0.964402 8.29807 1.00047 5.65251C1.03653 3.00772 3.11321 0.964361 5.55579 1.00048C70.6381 1.96284 172.162 20.778 265.727 74.1141C356.419 125.812 439.814 210.07 474.986 341.999Z" fill="black" stroke="white" stroke-width="2"/>
</svg>
