<svg width="551" height="595" viewBox="0 0 551 595" fill="none" xmlns="http://www.w3.org/2000/svg">
<path d="M518.322 561.877L518.948 565.414L520.24 562.062L540.811 508.681C541.601 506.63 542.787 505.433 543.933 504.989C545.021 504.569 546.25 504.757 547.419 505.865C548.626 507.011 549.492 508.896 549.837 511.091C550.18 513.273 549.988 515.65 549.202 517.69L521.297 590.101C520.507 592.152 519.321 593.35 518.175 593.793C517.087 594.214 515.858 594.026 514.689 592.917L468.533 549.14C467.325 547.994 466.459 546.109 466.114 543.914C465.771 541.732 465.963 539.355 466.75 537.315C467.54 535.264 468.725 534.067 469.872 533.624C470.96 533.203 472.189 533.391 473.357 534.499L506.859 566.274L509.065 568.366L508.532 565.373C470.951 354.408 382.355 219.41 285.369 136.125C184.889 49.8406 75.6842 19.3567 5.9301 17.8029C4.73191 17.7762 3.50939 16.9837 2.54562 15.4281C1.58995 13.8857 0.978541 11.712 1.00058 9.27737C1.02261 6.84232 1.67321 4.70113 2.65211 3.20841C3.63768 1.70552 4.86335 0.974159 6.05573 1.00072C76.9921 2.58085 187.727 33.4771 289.821 121.148C388.785 206.13 479.893 344.734 518.322 561.877Z" fill="black" stroke="white" stroke-width="2"/>
</svg>
